<mxfile host="app.diagrams.net" modified="2023-11-01T22:59:28.505Z" agent="Mozilla/5.0 (Windows NT 10.0; Win64; x64) AppleWebKit/537.36 (KHTML, like Gecko) Chrome/117.0.0.0 Safari/537.36" etag="ujfORM3n2TH8uXXGRp4M" version="22.0.8" type="github" pages="2">
  <diagram name="3-1" id="Ciw9cG080GeWcuIZ2MZ9">
    <mxGraphModel dx="1495" dy="772" grid="1" gridSize="10" guides="1" tooltips="1" connect="1" arrows="1" fold="1" page="1" pageScale="1" pageWidth="850" pageHeight="1100" math="0" shadow="0">
      <root>
        <mxCell id="0" />
        <mxCell id="1" parent="0" />
        <mxCell id="lW4FbozZwFS7NfOg_uhb-3" value="" style="edgeStyle=orthogonalEdgeStyle;rounded=0;orthogonalLoop=1;jettySize=auto;html=1;" edge="1" parent="1" source="lW4FbozZwFS7NfOg_uhb-1" target="lW4FbozZwFS7NfOg_uhb-2">
          <mxGeometry relative="1" as="geometry" />
        </mxCell>
        <mxCell id="lW4FbozZwFS7NfOg_uhb-1" value="num1 = random.radiant(1,10)&lt;br&gt;num2 = random.radiant(1,10)&lt;br style=&quot;border-color: var(--border-color);&quot;&gt;num3 = random.radiant(1,10)" style="rounded=0;whiteSpace=wrap;html=1;" vertex="1" parent="1">
          <mxGeometry x="120" y="330" width="470" height="60" as="geometry" />
        </mxCell>
        <mxCell id="lW4FbozZwFS7NfOg_uhb-5" value="" style="edgeStyle=orthogonalEdgeStyle;rounded=0;orthogonalLoop=1;jettySize=auto;html=1;" edge="1" parent="1" source="lW4FbozZwFS7NfOg_uhb-2" target="lW4FbozZwFS7NfOg_uhb-4">
          <mxGeometry relative="1" as="geometry" />
        </mxCell>
        <mxCell id="lW4FbozZwFS7NfOg_uhb-6" value="&lt;b&gt;&lt;font style=&quot;font-size: 14px;&quot;&gt;T&lt;/font&gt;&lt;/b&gt;" style="edgeLabel;html=1;align=center;verticalAlign=middle;resizable=0;points=[];" vertex="1" connectable="0" parent="lW4FbozZwFS7NfOg_uhb-5">
          <mxGeometry x="-0.3857" y="-2" relative="1" as="geometry">
            <mxPoint x="1" as="offset" />
          </mxGeometry>
        </mxCell>
        <mxCell id="lW4FbozZwFS7NfOg_uhb-8" value="" style="edgeStyle=orthogonalEdgeStyle;rounded=0;orthogonalLoop=1;jettySize=auto;html=1;" edge="1" parent="1" source="lW4FbozZwFS7NfOg_uhb-2" target="lW4FbozZwFS7NfOg_uhb-7">
          <mxGeometry relative="1" as="geometry" />
        </mxCell>
        <mxCell id="lW4FbozZwFS7NfOg_uhb-9" value="&lt;font style=&quot;font-size: 14px;&quot;&gt;F&lt;/font&gt;" style="edgeLabel;html=1;align=center;verticalAlign=middle;resizable=0;points=[];fontStyle=0" vertex="1" connectable="0" parent="lW4FbozZwFS7NfOg_uhb-8">
          <mxGeometry x="-0.3082" y="-1" relative="1" as="geometry">
            <mxPoint as="offset" />
          </mxGeometry>
        </mxCell>
        <mxCell id="lW4FbozZwFS7NfOg_uhb-2" value="num1&amp;lt;num2" style="rhombus;whiteSpace=wrap;html=1;rounded=0;" vertex="1" parent="1">
          <mxGeometry x="282.5" y="450" width="145" height="80" as="geometry" />
        </mxCell>
        <mxCell id="lW4FbozZwFS7NfOg_uhb-11" value="" style="edgeStyle=orthogonalEdgeStyle;rounded=0;orthogonalLoop=1;jettySize=auto;html=1;" edge="1" parent="1">
          <mxGeometry relative="1" as="geometry">
            <mxPoint x="71" y="600" as="sourcePoint" />
            <mxPoint x="-29" y="750" as="targetPoint" />
          </mxGeometry>
        </mxCell>
        <mxCell id="lW4FbozZwFS7NfOg_uhb-16" value="&lt;font style=&quot;font-size: 24px;&quot; face=&quot;Comic Sans MS&quot;&gt;T&lt;/font&gt;" style="edgeLabel;html=1;align=center;verticalAlign=middle;resizable=0;points=[];" vertex="1" connectable="0" parent="lW4FbozZwFS7NfOg_uhb-11">
          <mxGeometry x="-0.6225" y="-1" relative="1" as="geometry">
            <mxPoint as="offset" />
          </mxGeometry>
        </mxCell>
        <mxCell id="lW4FbozZwFS7NfOg_uhb-18" value="" style="edgeStyle=orthogonalEdgeStyle;rounded=0;orthogonalLoop=1;jettySize=auto;html=1;" edge="1" parent="1" source="lW4FbozZwFS7NfOg_uhb-4" target="lW4FbozZwFS7NfOg_uhb-17">
          <mxGeometry relative="1" as="geometry" />
        </mxCell>
        <mxCell id="lW4FbozZwFS7NfOg_uhb-19" value="&lt;font style=&quot;font-size: 14px;&quot; face=&quot;Comic Sans MS&quot;&gt;&lt;b&gt;F&lt;/b&gt;&lt;/font&gt;" style="edgeLabel;html=1;align=center;verticalAlign=middle;resizable=0;points=[];" vertex="1" connectable="0" parent="lW4FbozZwFS7NfOg_uhb-18">
          <mxGeometry x="-0.6" y="2" relative="1" as="geometry">
            <mxPoint as="offset" />
          </mxGeometry>
        </mxCell>
        <mxCell id="lW4FbozZwFS7NfOg_uhb-4" value="num1&amp;lt;num3" style="rhombus;whiteSpace=wrap;html=1;rounded=0;" vertex="1" parent="1">
          <mxGeometry x="70" y="560" width="145" height="80" as="geometry" />
        </mxCell>
        <mxCell id="lW4FbozZwFS7NfOg_uhb-21" value="" style="edgeStyle=orthogonalEdgeStyle;rounded=0;orthogonalLoop=1;jettySize=auto;html=1;fontFamily=Helvetica;fontSize=11;fontColor=default;" edge="1" parent="1" source="lW4FbozZwFS7NfOg_uhb-7" target="lW4FbozZwFS7NfOg_uhb-20">
          <mxGeometry relative="1" as="geometry" />
        </mxCell>
        <mxCell id="lW4FbozZwFS7NfOg_uhb-24" value="&lt;font style=&quot;font-size: 18px;&quot;&gt;T&lt;/font&gt;" style="edgeLabel;html=1;align=center;verticalAlign=middle;resizable=0;points=[];fontSize=11;fontFamily=Helvetica;fontColor=default;" vertex="1" connectable="0" parent="lW4FbozZwFS7NfOg_uhb-21">
          <mxGeometry x="-0.6879" relative="1" as="geometry">
            <mxPoint x="1" as="offset" />
          </mxGeometry>
        </mxCell>
        <mxCell id="lW4FbozZwFS7NfOg_uhb-26" value="" style="edgeStyle=orthogonalEdgeStyle;rounded=0;orthogonalLoop=1;jettySize=auto;html=1;fontFamily=Helvetica;fontSize=11;fontColor=default;" edge="1" parent="1" source="lW4FbozZwFS7NfOg_uhb-7" target="lW4FbozZwFS7NfOg_uhb-25">
          <mxGeometry relative="1" as="geometry" />
        </mxCell>
        <mxCell id="lW4FbozZwFS7NfOg_uhb-27" value="&lt;font style=&quot;font-size: 14px;&quot;&gt;F&lt;/font&gt;" style="edgeLabel;html=1;align=center;verticalAlign=middle;resizable=0;points=[];fontSize=11;fontFamily=Helvetica;fontColor=default;" vertex="1" connectable="0" parent="lW4FbozZwFS7NfOg_uhb-26">
          <mxGeometry x="-0.6791" y="-1" relative="1" as="geometry">
            <mxPoint as="offset" />
          </mxGeometry>
        </mxCell>
        <mxCell id="lW4FbozZwFS7NfOg_uhb-7" value="num2&amp;lt;num3" style="rhombus;whiteSpace=wrap;html=1;rounded=0;" vertex="1" parent="1">
          <mxGeometry x="507.5" y="550" width="145" height="80" as="geometry" />
        </mxCell>
        <mxCell id="lW4FbozZwFS7NfOg_uhb-10" value="min_value = num1" style="whiteSpace=wrap;html=1;rounded=0;" vertex="1" parent="1">
          <mxGeometry x="-90" y="750" width="120" height="60" as="geometry" />
        </mxCell>
        <mxCell id="lW4FbozZwFS7NfOg_uhb-17" value="min_value = num3" style="whiteSpace=wrap;html=1;rounded=0;" vertex="1" parent="1">
          <mxGeometry x="230" y="750" width="120" height="60" as="geometry" />
        </mxCell>
        <mxCell id="lW4FbozZwFS7NfOg_uhb-20" value="min_value = num2" style="whiteSpace=wrap;html=1;rounded=0;" vertex="1" parent="1">
          <mxGeometry x="380" y="750" width="120" height="60" as="geometry" />
        </mxCell>
        <mxCell id="lW4FbozZwFS7NfOg_uhb-25" value="min_value =&amp;nbsp; num3" style="whiteSpace=wrap;html=1;rounded=0;" vertex="1" parent="1">
          <mxGeometry x="660" y="750" width="120" height="60" as="geometry" />
        </mxCell>
      </root>
    </mxGraphModel>
  </diagram>
  <diagram id="GdcommcFl87SUbQiEFs1" name="3-2">
    <mxGraphModel dx="1495" dy="772" grid="1" gridSize="10" guides="1" tooltips="1" connect="1" arrows="1" fold="1" page="1" pageScale="1" pageWidth="850" pageHeight="1100" math="0" shadow="0">
      <root>
        <mxCell id="0" />
        <mxCell id="1" parent="0" />
        <mxCell id="TuYZfj6VlRPmbQLX2GUS-3" value="" style="edgeStyle=orthogonalEdgeStyle;rounded=0;orthogonalLoop=1;jettySize=auto;html=1;fontFamily=Helvetica;fontSize=11;fontColor=default;" edge="1" parent="1" source="TuYZfj6VlRPmbQLX2GUS-1" target="TuYZfj6VlRPmbQLX2GUS-2">
          <mxGeometry relative="1" as="geometry" />
        </mxCell>
        <mxCell id="TuYZfj6VlRPmbQLX2GUS-1" value="&lt;div&gt;Ask for three integer values to user&lt;/div&gt;&lt;div&gt;num1, num2, num3&lt;/div&gt;" style="rounded=0;whiteSpace=wrap;html=1;labelBackgroundColor=default;align=center;verticalAlign=middle;fontFamily=Helvetica;fontSize=11;fontColor=default;fillColor=none;gradientColor=none;" vertex="1" parent="1">
          <mxGeometry x="200" y="160" width="340" height="60" as="geometry" />
        </mxCell>
        <mxCell id="rfbn1EZWHuKomnmW47Y--2" value="" style="edgeStyle=orthogonalEdgeStyle;rounded=0;orthogonalLoop=1;jettySize=auto;html=1;fontFamily=Helvetica;fontSize=11;fontColor=default;" edge="1" parent="1" source="TuYZfj6VlRPmbQLX2GUS-2" target="rfbn1EZWHuKomnmW47Y--1">
          <mxGeometry relative="1" as="geometry" />
        </mxCell>
        <mxCell id="hKtTJMertiHNUsYj086Y-1" value="&lt;font style=&quot;font-size: 18px;&quot; face=&quot;Verdana&quot;&gt;&lt;b&gt;T&lt;/b&gt;&lt;/font&gt;" style="edgeLabel;html=1;align=center;verticalAlign=middle;resizable=0;points=[];fontSize=11;fontFamily=Helvetica;fontColor=default;fontStyle=0" vertex="1" connectable="0" parent="rfbn1EZWHuKomnmW47Y--2">
          <mxGeometry x="-0.3" y="-1" relative="1" as="geometry">
            <mxPoint as="offset" />
          </mxGeometry>
        </mxCell>
        <mxCell id="TuYZfj6VlRPmbQLX2GUS-2" value="num1&amp;lt;num2" style="rhombus;whiteSpace=wrap;html=1;fontSize=11;fillColor=none;rounded=0;labelBackgroundColor=default;gradientColor=none;" vertex="1" parent="1">
          <mxGeometry x="300" y="260" width="140" height="80" as="geometry" />
        </mxCell>
        <mxCell id="p3oAcltuJfWGJLfP9-eI-2" value="" style="edgeStyle=orthogonalEdgeStyle;rounded=0;orthogonalLoop=1;jettySize=auto;html=1;fontFamily=Helvetica;fontSize=11;fontColor=default;" edge="1" parent="1" source="rfbn1EZWHuKomnmW47Y--1" target="p3oAcltuJfWGJLfP9-eI-1">
          <mxGeometry relative="1" as="geometry" />
        </mxCell>
        <mxCell id="ETDc3atVPGLjW3bUuO4q-1" value="&lt;font face=&quot;Verdana&quot; style=&quot;font-size: 18px;&quot;&gt;&lt;b style=&quot;&quot;&gt;T&lt;/b&gt;&lt;/font&gt;" style="edgeLabel;html=1;align=center;verticalAlign=middle;resizable=0;points=[];fontSize=11;fontFamily=Helvetica;fontColor=default;" vertex="1" connectable="0" parent="p3oAcltuJfWGJLfP9-eI-2">
          <mxGeometry x="-0.5294" relative="1" as="geometry">
            <mxPoint as="offset" />
          </mxGeometry>
        </mxCell>
        <mxCell id="rfbn1EZWHuKomnmW47Y--1" value="num1&amp;lt;num3" style="rhombus;whiteSpace=wrap;html=1;fontSize=11;fillColor=none;rounded=0;labelBackgroundColor=default;gradientColor=none;" vertex="1" parent="1">
          <mxGeometry x="110" y="360" width="140" height="80" as="geometry" />
        </mxCell>
        <mxCell id="p3oAcltuJfWGJLfP9-eI-1" value="min_value = num1" style="whiteSpace=wrap;html=1;fontSize=11;fillColor=none;rounded=0;labelBackgroundColor=default;gradientColor=none;" vertex="1" parent="1">
          <mxGeometry x="-40" y="480" width="120" height="60" as="geometry" />
        </mxCell>
      </root>
    </mxGraphModel>
  </diagram>
</mxfile>
